HIERARCHY
ROOT joint_Root
{
	OFFSET 0.0 0.0 0.0
	CHANNELS 6 Xposition Yposition Zposition Zrotation Xrotation Yrotation 
	JOINT Hips
	{
		OFFSET -17.1583 93.1646 452.98
		CHANNELS 6 Xposition Yposition Zposition Zrotation Xrotation Yrotation 
		JOINT Spine
		{
			OFFSET 15.7357 0.0 0.0
			CHANNELS 6 Xposition Yposition Zposition Zrotation Xrotation Yrotation 
			JOINT Chest
			{
				OFFSET 8.98455 -0.406207 0.0
				CHANNELS 6 Xposition Yposition Zposition Zrotation Xrotation Yrotation 
				JOINT Neck
				{
					OFFSET 16.3773 0.0 0.0
					CHANNELS 6 Xposition Yposition Zposition Zrotation Xrotation Yrotation 
					JOINT Head
					{
						OFFSET 6.45672 0.0 0.0
						CHANNELS 6 Xposition Yposition Zposition Zrotation Xrotation Yrotation 
						End Site
						{
							OFFSET 0.0 0.0 0.0
						}
					}
				}
				JOINT Shoulder_L
				{
					OFFSET 12.9942 -0.242716 4.98039
					CHANNELS 6 Xposition Yposition Zposition Zrotation Xrotation Yrotation 
					JOINT UpperArm_L
					{
						OFFSET 5.34809 0.0 0.0
						CHANNELS 6 Xposition Yposition Zposition Zrotation Xrotation Yrotation 
						JOINT LowerArm_L
						{
							OFFSET 24.3286 1.87007e-05 0.0
							CHANNELS 6 Xposition Yposition Zposition Zrotation Xrotation Yrotation 
							JOINT Hand_L
							{
								OFFSET 22.2916 0.0 0.0
								CHANNELS 6 Xposition Yposition Zposition Zrotation Xrotation Yrotation 
								End Site
								{
									OFFSET 0.0 0.0 0.0
								}
							}
						}
					}
				}
				JOINT Shoulder_R
				{
					OFFSET 12.9945 -0.242716 -4.98039
					CHANNELS 6 Xposition Yposition Zposition Zrotation Xrotation Yrotation 
					JOINT UpperArm_R
					{
						OFFSET -5.34813 0.0 0.0
						CHANNELS 6 Xposition Yposition Zposition Zrotation Xrotation Yrotation 
						JOINT LowerArm_R
						{
							OFFSET -24.3289 0.000322201 0.0
							CHANNELS 6 Xposition Yposition Zposition Zrotation Xrotation Yrotation 
							JOINT Hand_R
							{
								OFFSET -22.2915 -0.000108084 0.0
								CHANNELS 6 Xposition Yposition Zposition Zrotation Xrotation Yrotation 
								End Site
								{
									OFFSET 0.0 0.0 0.0
								}
							}
						}
					}
				}
			}
		}
		JOINT UpperLeg_L
		{
			OFFSET -2.19248 -6.46944 0.0
			CHANNELS 6 Xposition Yposition Zposition Zrotation Xrotation Yrotation 
			JOINT LowerLeg_L
			{
				OFFSET 39.0811 0.0 -1.23785e-05
				CHANNELS 6 Xposition Yposition Zposition Zrotation Xrotation Yrotation 
				JOINT Foot_L
				{
					OFFSET 40.9854 0.0 -1.26872e-05
					CHANNELS 6 Xposition Yposition Zposition Zrotation Xrotation Yrotation 
					JOINT Toes_L
					{
						OFFSET 11.7543 0.0 0.0
						CHANNELS 6 Xposition Yposition Zposition Zrotation Xrotation Yrotation 
						End Site
						{
							OFFSET 0.0 0.0 0.0
						}
					}
				}
			}
		}
		JOINT UpperLeg_R
		{
			OFFSET -2.19251 6.46944 0.0
			CHANNELS 6 Xposition Yposition Zposition Zrotation Xrotation Yrotation 
			JOINT LowerLeg_R
			{
				OFFSET -39.0811 -0.00228153 -0.0401928
				CHANNELS 6 Xposition Yposition Zposition Zrotation Xrotation Yrotation 
				JOINT Foot_R
				{
					OFFSET -40.9854 0.0 0.0
					CHANNELS 6 Xposition Yposition Zposition Zrotation Xrotation Yrotation 
					JOINT Toes_R
					{
						OFFSET -11.7543 0.0 0.0
						CHANNELS 6 Xposition Yposition Zposition Zrotation Xrotation Yrotation 
						End Site
						{
							OFFSET 0.0 0.0 0.0
						}
					}
				}
			}
		}
	}
}
MOTION
Frames:	7
Frame Time:	0.0333333
0.000000 0.000000 0.000000 0.000000 0.000000 -0.000000 -3.209650 91.654100 -0.227066 83.223100 0.923078 4.634540 15.735700 0.000005 -0.000001 67.151100 87.127300 -63.897600 8.984550 -0.406207 -0.000000 -2.392630 -2.518400 6.455000 16.377300 -0.000001 -0.000001 11.759800 4.928740 4.804360 6.456720 -0.000001 -0.000000 4.981940 8.681740 6.642740 12.994200 -0.242716 4.980390 -92.305600 6.658410 -70.851600 5.348090 -0.000007 -0.000001 -72.712700 -15.622300 -1.449150 24.328600 0.000019 0.000005 22.255400 -20.612200 -130.705000 22.291600 -0.000001 0.000005 54.564500 4.160700 21.896900 12.994500 -0.242716 -4.980390 87.762700 6.484560 -70.918200 -5.348130 -0.000001 -0.000004 -65.089300 2.392180 -5.134730 -24.328900 0.000322 -0.000009 8.861570 -8.133990 -132.223000 -22.291500 -0.000108 -0.000004 57.317300 5.393790 -2.737870 -2.192480 -6.469440 -0.000000 -171.187000 1.379640 -4.457600 39.081100 -0.000007 -0.000012 0.451323 -0.770635 30.356600 40.985400 -0.000006 -0.000013 0.841824 6.925930 -77.313600 11.754300 -0.000000 0.000003 0.000423 0.160177 -10.080500 -2.192510 6.469440 -0.000001 -169.528000 7.183520 -176.174000 -39.081100 -0.002282 -0.040193 0.140357 -0.467233 16.345400 -40.985400 0.000008 0.000006 5.135720 0.666013 -71.705500 -11.754300 -0.000006 -0.000006 -0.011064 0.279093 -5.232350
0.000000 0.000000 0.000000 0.000000 0.000000 -0.000000 -3.221180 91.664500 -0.212104 83.211600 0.927038 4.579370 15.735700 0.000005 -0.000001 67.074800 87.140200 -63.842300 8.984550 -0.406207 -0.000000 -2.420000 -2.514330 6.412580 16.377300 -0.000001 -0.000001 11.638500 4.895210 4.863850 6.456720 -0.000001 -0.000000 4.848120 8.653350 6.765650 12.994200 -0.242716 4.980390 -92.303000 6.648710 -70.845600 5.348090 -0.000007 -0.000001 -72.441500 -14.394400 -0.982440 24.328600 0.000019 0.000005 23.346600 -22.088200 -131.062000 22.291600 -0.000001 0.000005 56.994600 4.179650 21.615900 12.994500 -0.242716 -4.980390 87.780100 6.432040 -70.912700 -5.348130 -0.000001 -0.000004 -65.219200 2.432820 -5.173400 -24.328900 0.000322 -0.000009 4.727050 -4.427480 -133.030000 -22.291500 -0.000108 -0.000004 58.962600 5.365110 -1.835920 -2.192480 -6.469440 -0.000000 -171.169000 1.390620 -4.444820 39.081100 -0.000007 -0.000012 0.453296 -0.776178 30.286600 40.985400 -0.000006 -0.000013 0.836672 6.940340 -77.352500 11.754300 -0.000000 0.000003 0.000503 0.158674 -10.141500 -2.192510 6.469440 -0.000001 -169.496000 7.187300 -176.126000 -39.081100 -0.002282 -0.040193 0.139890 -0.470382 16.189400 -40.985400 0.000008 0.000006 5.146720 0.664734 -71.719800 -11.754300 -0.000006 -0.000006 -0.011213 0.280160 -5.188670
0.000000 0.000000 0.000000 0.000000 0.000000 -0.000000 -3.222490 91.666900 -0.217532 83.237100 0.861146 4.351940 15.735700 0.000005 -0.000001 67.430500 87.177900 -64.234400 8.984550 -0.406207 -0.000000 -2.478610 -2.451060 6.339700 16.377300 -0.000001 -0.000001 11.347400 4.854490 4.954920 6.456720 -0.000001 -0.000000 4.745780 8.562700 6.817980 12.994200 -0.242716 4.980390 -92.359600 6.819220 -70.861100 5.348090 -0.000007 -0.000001 -71.677000 -12.310200 -0.159005 24.328600 0.000019 0.000005 30.742800 -28.669500 -128.891000 22.291600 -0.000001 0.000005 58.814800 4.416090 17.966100 12.994500 -0.242716 -4.980390 87.791500 6.390830 -70.891000 -5.348130 -0.000001 -0.000004 -65.224900 3.016330 -4.803200 -24.328900 0.000322 -0.000009 8.756870 -8.089770 -132.413000 -22.291500 -0.000108 -0.000004 59.054500 5.447820 -4.562250 -2.192480 -6.469440 -0.000000 -171.196000 1.293290 -4.666980 39.081100 -0.000007 -0.000012 0.453801 -0.777775 30.263100 40.985400 -0.000006 -0.000013 0.832662 6.901700 -77.239300 11.754300 -0.000000 0.000003 0.000605 0.156732 -10.220300 -2.192510 6.469440 -0.000001 -169.512000 7.163770 -176.386000 -39.081100 -0.002282 -0.040193 0.139745 -0.468423 16.237100 -40.985400 0.000008 0.000006 5.164330 0.781566 -71.682400 -11.754300 -0.000006 -0.000006 -0.011234 0.280307 -5.182650
0.000000 0.000000 0.000000 0.000000 0.000000 -0.000000 -3.231570 91.683300 -0.198331 83.219900 0.807263 4.275430 15.735700 0.000005 -0.000001 67.858700 87.177100 -64.671900 8.984550 -0.406207 -0.000000 -2.462360 -2.411410 6.322470 16.377300 -0.000001 -0.000001 11.204800 4.807840 4.896490 6.456720 -0.000001 -0.000000 4.596440 8.492250 6.865330 12.994200 -0.242716 4.980390 -92.430900 7.003670 -70.803500 5.348090 -0.000007 -0.000001 -70.813000 -10.374000 0.528806 24.328600 0.000019 0.000005 39.566700 -35.539100 -125.125000 22.291600 -0.000001 0.000005 60.807500 4.719860 12.799200 12.994500 -0.242716 -4.980390 87.735000 6.556630 -70.894400 -5.348130 -0.000001 -0.000004 -64.625800 4.100510 -4.234970 -24.328900 0.000322 -0.000009 16.424600 -14.802600 -130.915000 -22.291500 -0.000108 -0.000004 59.592100 5.582780 -10.362700 -2.192480 -6.469440 -0.000000 -171.152000 1.266370 -4.676270 39.081100 -0.000007 -0.000012 0.446216 -0.767287 30.181300 40.985400 -0.000006 -0.000013 0.812208 6.913920 -77.302300 11.754300 -0.000000 0.000003 0.000332 0.161835 -10.013200 -2.192510 6.469440 -0.000001 -169.476000 7.102210 -176.333000 -39.081100 -0.002282 -0.040193 0.136548 -0.463675 16.030200 -40.985400 0.000008 0.000006 5.163090 0.758676 -71.634900 -11.754300 -0.000006 -0.000006 -0.011036 0.278894 -5.240490
0.000000 0.000000 0.000000 0.000000 0.000000 -0.000000 -3.240380 91.672800 -0.169696 83.251400 0.756104 4.220820 15.735700 0.000005 -0.000001 68.448300 87.163700 -65.258300 8.984550 -0.406207 -0.000000 -2.417060 -2.366310 6.330540 16.377300 -0.000001 -0.000001 11.040400 4.786110 4.713050 6.456720 -0.000001 -0.000000 4.550090 8.421560 6.834300 12.994200 -0.242716 4.980390 -92.459800 7.046660 -70.701500 5.348090 -0.000007 -0.000001 -70.198100 -9.115090 0.915245 24.328600 0.000019 0.000005 48.496800 -41.131000 -120.200000 22.291600 -0.000001 0.000005 63.429300 4.930550 8.762860 12.994500 -0.242716 -4.980390 87.683100 6.679670 -70.820300 -5.348130 -0.000001 -0.000004 -63.817900 5.403230 -4.025010 -24.328900 0.000322 -0.000009 22.182500 -19.862100 -129.803000 -22.291500 -0.000108 -0.000004 59.952200 5.671120 -17.562700 -2.192480 -6.469440 -0.000000 -171.179000 1.211870 -4.722310 39.081100 -0.000007 -0.000012 0.447002 -0.768019 30.201400 40.985400 -0.000006 -0.000013 0.804635 6.885530 -77.271700 11.754300 -0.000000 0.000003 0.000524 0.158272 -10.157800 -2.192510 6.469440 -0.000001 -169.518000 7.173580 -176.430000 -39.081100 -0.002282 -0.040193 0.138554 -0.467054 16.147500 -40.985400 0.000008 0.000006 5.186290 0.872991 -71.676200 -11.754300 -0.000006 -0.000006 -0.011147 0.279683 -5.208170
0.000000 0.000000 0.000000 0.000000 0.000000 -0.000000 -3.255850 91.670100 -0.147036 83.213400 0.754402 4.225400 15.735700 0.000005 -0.000001 68.426200 87.151200 -65.191300 8.984550 -0.406207 -0.000000 -2.393050 -2.380850 6.420660 16.377300 -0.000001 -0.000001 11.112800 4.792340 4.596240 6.456720 -0.000001 -0.000000 4.626360 8.405160 6.606850 12.994200 -0.242716 4.980390 -92.469400 7.079610 -70.714300 5.348090 -0.000007 -0.000001 -69.912900 -8.851880 0.941842 24.328600 0.000019 0.000005 55.378300 -44.187400 -115.698000 22.291600 -0.000001 0.000005 65.070900 5.019990 6.891180 12.994500 -0.242716 -4.980390 87.666800 6.717470 -70.795400 -5.348130 -0.000001 -0.000004 -63.059600 6.624020 -4.092160 -24.328900 0.000322 -0.000009 26.141900 -23.464700 -129.052000 -22.291500 -0.000108 -0.000004 59.378500 5.679660 -22.773700 -2.192480 -6.469440 -0.000000 -171.122000 1.172680 -4.699000 39.081100 -0.000007 -0.000012 0.450096 -0.772751 30.220300 40.985400 -0.000006 -0.000013 0.805498 6.931100 -77.354200 11.754300 -0.000000 0.000003 0.000433 0.159987 -10.088200 -2.192510 6.469440 -0.000001 -169.451000 7.086240 -176.367000 -39.081100 -0.002282 -0.040193 0.138227 -0.468175 16.073900 -40.985400 0.000008 0.000006 5.188070 0.798121 -71.675300 -11.754300 -0.000006 -0.000006 -0.011072 0.279149 -5.230060
0.000000 0.000000 0.000000 0.000000 0.000000 -0.000000 -3.266790 91.657600 -0.121352 83.217700 0.750667 4.266820 15.735700 0.000005 -0.000001 68.523500 87.137900 -65.263700 8.984550 -0.406207 -0.000000 -2.363930 -2.383020 6.470840 16.377300 -0.000001 -0.000001 11.249400 4.835630 4.543680 6.456720 -0.000001 -0.000000 4.819740 8.415000 6.490440 12.994200 -0.242716 4.980390 -92.474100 7.062150 -70.636500 5.348090 -0.000007 -0.000001 -70.106000 -9.348980 0.433562 24.328600 0.000019 0.000005 54.243600 -43.224200 -116.250000 22.291600 -0.000001 0.000005 64.569400 4.974210 7.863260 12.994500 -0.242716 -4.980390 87.664200 6.758360 -70.882900 -5.348130 -0.000001 -0.000004 -62.698900 7.248060 -4.298770 -24.328900 0.000322 -0.000009 27.586100 -24.673800 -128.624000 -22.291500 -0.000108 -0.000004 58.855800 5.675510 -23.870100 -2.192480 -6.469440 -0.000000 -171.111000 1.141880 -4.668510 39.081100 -0.000007 -0.000012 0.453037 -0.776341 30.267100 40.985400 -0.000006 -0.000013 0.817140 6.990110 -77.371800 11.754300 -0.000000 0.000003 0.000417 0.160285 -10.076100 -2.192510 6.469440 -0.000001 -169.464000 7.113780 -176.353000 -39.081100 -0.002282 -0.040193 0.138928 -0.468099 16.155600 -40.985400 0.000008 0.000006 5.203990 0.849172 -71.675400 -11.754300 -0.000006 -0.000006 -0.010849 0.277546 -5.295640
